<svg xmlns="http://www.w3.org/2000/svg" viewBox="9.17 5.14 33.13 33.13"><path fill="#fb9109" fill-rule="evenodd" d="M 25.730469 6.140625 C 17.136719 6.140625 10.167969 13.109375 10.167969 21.703125 C 10.167969 30.296875 17.136719 37.265625 25.730469 37.265625 C 34.324219 37.265625 41.292969 30.296875 41.292969 21.703125 C 41.292969 13.109375 34.324219 6.140625 25.730469 6.140625 Z M 18.425781 19.578125 C 18.425781 19.996094 18.347656 20.398438 18.1875 20.785156 C 18.027344 21.171875 17.800781 21.511719 17.503906 21.804688 C 17.207031 22.101562 16.867188 22.328125 16.484375 22.488281 C 16.097656 22.648438 15.695312 22.726562 15.277344 22.726562 C 14.859375 22.726562 14.457031 22.648438 14.074219 22.488281 C 13.6875 22.328125 13.347656 22.101562 13.050781 21.804688 C 12.757812 21.511719 12.527344 21.171875 12.367188 20.785156 C 12.210938 20.398438 12.128906 19.996094 12.128906 19.578125 C 12.128906 19.160156 12.210938 18.761719 12.367188 18.375 C 12.527344 17.988281 12.757812 17.648438 13.050781 17.351562 C 13.347656 17.058594 13.6875 16.832031 14.074219 16.671875 C 14.457031 16.511719 14.859375 16.429688 15.277344 16.429688 C 15.695312 16.429688 16.097656 16.511719 16.484375 16.671875 C 16.867188 16.832031 17.207031 17.058594 17.503906 17.351562 C 17.800781 17.648438 18.027344 17.988281 18.1875 18.375 C 18.347656 18.761719 18.425781 19.160156 18.425781 19.578125 Z M 18.425781 19.578125 M 15.277344 22.871094 C 13.464844 22.871094 11.984375 21.390625 11.984375 19.578125 C 11.984375 17.769531 13.464844 16.285156 15.277344 16.285156 C 17.089844 16.285156 18.570312 17.769531 18.570312 19.578125 C 18.570312 21.390625 17.089844 22.871094 15.277344 22.871094 Z M 15.277344 16.59375 C 13.632812 16.59375 12.292969 17.933594 12.292969 19.578125 C 12.292969 21.226562 13.632812 22.5625 15.277344 22.5625 C 16.925781 22.5625 18.261719 21.226562 18.261719 19.578125 C 18.261719 17.933594 16.925781 16.59375 15.277344 16.59375 Z M 15.277344 16.59375 M 39.035156 19.578125 C 39.035156 19.996094 38.953125 20.398438 38.792969 20.785156 C 38.632812 21.171875 38.40625 21.511719 38.113281 21.804688 C 37.816406 22.101562 37.476562 22.328125 37.089844 22.488281 C 36.703125 22.648438 36.300781 22.726562 35.886719 22.726562 C 35.46875 22.726562 35.066406 22.648438 34.679688 22.488281 C 34.292969 22.328125 33.953125 22.101562 33.660156 21.804688 C 33.363281 21.511719 33.136719 21.171875 32.976562 20.785156 C 32.816406 20.398438 32.734375 19.996094 32.734375 19.578125 C 32.734375 19.160156 32.816406 18.761719 32.976562 18.375 C 33.136719 17.988281 33.363281 17.648438 33.660156 17.351562 C 33.953125 17.058594 34.292969 16.832031 34.679688 16.671875 C 35.066406 16.511719 35.46875 16.429688 35.886719 16.429688 C 36.300781 16.429688 36.703125 16.511719 37.089844 16.671875 C 37.476562 16.832031 37.816406 17.058594 38.113281 17.351562 C 38.40625 17.648438 38.632812 17.988281 38.792969 18.375 C 38.953125 18.761719 39.035156 19.160156 39.035156 19.578125 Z M 39.035156 19.578125 M 35.886719 22.871094 C 34.074219 22.871094 32.59375 21.390625 32.59375 19.578125 C 32.59375 17.769531 34.074219 16.285156 35.886719 16.285156 C 37.695312 16.285156 39.175781 17.769531 39.175781 19.578125 C 39.175781 21.390625 37.695312 22.871094 35.886719 22.871094 Z M 35.886719 16.59375 C 34.238281 16.59375 32.902344 17.933594 32.902344 19.578125 C 32.902344 21.226562 34.238281 22.5625 35.886719 22.5625 C 37.53125 22.5625 38.867188 21.226562 38.867188 19.578125 C 38.867188 17.933594 37.53125 16.59375 35.886719 16.59375 Z M 35.886719 16.59375 M 28.878906 11.824219 C 28.878906 12.242188 28.800781 12.644531 28.640625 13.03125 C 28.480469 13.414062 28.253906 13.757812 27.957031 14.050781 C 27.660156 14.347656 27.320312 14.574219 26.9375 14.734375 C 26.550781 14.894531 26.148438 14.972656 25.730469 14.972656 C 25.3125 14.972656 24.910156 14.894531 24.527344 14.734375 C 24.140625 14.574219 23.800781 14.347656 23.503906 14.050781 C 23.210938 13.757812 22.980469 13.414062 22.820312 13.03125 C 22.660156 12.644531 22.582031 12.242188 22.582031 11.824219 C 22.582031 11.40625 22.660156 11.007812 22.820312 10.621094 C 22.980469 10.234375 23.210938 9.894531 23.503906 9.597656 C 23.800781 9.304688 24.140625 9.074219 24.527344 8.917969 C 24.910156 8.757812 25.3125 8.675781 25.730469 8.675781 C 26.148438 8.675781 26.550781 8.757812 26.9375 8.917969 C 27.320312 9.074219 27.660156 9.304688 27.957031 9.597656 C 28.253906 9.894531 28.480469 10.234375 28.640625 10.621094 C 28.800781 11.007812 28.878906 11.40625 28.878906 11.824219 Z M 28.878906 11.824219 M 25.730469 15.117188 C 23.917969 15.117188 22.4375 13.636719 22.4375 11.824219 C 22.4375 10.015625 23.917969 8.53125 25.730469 8.53125 C 27.542969 8.53125 29.023438 10.015625 29.023438 11.824219 C 29.023438 13.636719 27.542969 15.117188 25.730469 15.117188 Z M 25.730469 8.839844 C 24.085938 8.839844 22.746094 10.179688 22.746094 11.824219 C 22.746094 13.472656 24.085938 14.808594 25.730469 14.808594 C 27.378906 14.808594 28.714844 13.472656 28.714844 11.824219 C 28.714844 10.179688 27.378906 8.839844 25.730469 8.839844 Z M 25.730469 8.839844 M 22.292969 30.519531 C 22.292969 30.9375 22.214844 31.339844 22.054688 31.726562 C 21.894531 32.109375 21.667969 32.453125 21.371094 32.746094 C 21.074219 33.042969 20.734375 33.269531 20.351562 33.429688 C 19.964844 33.589844 19.5625 33.667969 19.144531 33.667969 C 18.726562 33.667969 18.324219 33.589844 17.941406 33.429688 C 17.554688 33.269531 17.214844 33.042969 16.917969 32.746094 C 16.625 32.453125 16.394531 32.109375 16.234375 31.726562 C 16.078125 31.339844 15.996094 30.9375 15.996094 30.519531 C 15.996094 30.101562 16.078125 29.703125 16.234375 29.316406 C 16.394531 28.929688 16.625 28.589844 16.917969 28.292969 C 17.214844 28 17.554688 27.769531 17.941406 27.613281 C 18.324219 27.453125 18.726562 27.371094 19.144531 27.371094 C 19.5625 27.371094 19.964844 27.453125 20.351562 27.613281 C 20.734375 27.769531 21.074219 28 21.371094 28.292969 C 21.667969 28.589844 21.894531 28.929688 22.054688 29.316406 C 22.214844 29.703125 22.292969 30.101562 22.292969 30.519531 Z M 22.292969 30.519531 M 19.144531 33.8125 C 17.332031 33.8125 15.851562 32.332031 15.851562 30.519531 C 15.851562 28.710938 17.332031 27.226562 19.144531 27.226562 C 20.957031 27.226562 22.4375 28.710938 22.4375 30.519531 C 22.4375 32.332031 20.957031 33.8125 19.144531 33.8125 Z M 19.144531 27.535156 C 17.5 27.535156 16.160156 28.875 16.160156 30.519531 C 16.160156 32.167969 17.5 33.503906 19.144531 33.503906 C 20.792969 33.503906 22.128906 32.167969 22.128906 30.519531 C 22.128906 28.875 20.792969 27.535156 19.144531 27.535156 Z M 19.144531 27.535156 M 34.929688 30.519531 C 34.929688 30.9375 34.851562 31.339844 34.691406 31.726562 C 34.53125 32.109375 34.304688 32.453125 34.007812 32.746094 C 33.714844 33.042969 33.375 33.269531 32.988281 33.429688 C 32.601562 33.589844 32.199219 33.667969 31.78125 33.667969 C 31.363281 33.667969 30.964844 33.589844 30.578125 33.429688 C 30.191406 33.269531 29.851562 33.042969 29.554688 32.746094 C 29.261719 32.453125 29.035156 32.109375 28.875 31.726562 C 28.714844 31.339844 28.632812 30.9375 28.632812 30.519531 C 28.632812 30.101562 28.714844 29.703125 28.875 29.316406 C 29.035156 28.929688 29.261719 28.589844 29.554688 28.292969 C 29.851562 28 30.191406 27.769531 30.578125 27.613281 C 30.964844 27.453125 31.363281 27.371094 31.78125 27.371094 C 32.199219 27.371094 32.601562 27.453125 32.988281 27.613281 C 33.375 27.769531 33.714844 28 34.007812 28.292969 C 34.304688 28.589844 34.53125 28.929688 34.691406 29.316406 C 34.851562 29.703125 34.929688 30.101562 34.929688 30.519531 Z M 34.929688 30.519531 M 31.78125 33.8125 C 29.972656 33.8125 28.488281 32.332031 28.488281 30.519531 C 28.488281 28.710938 29.972656 27.226562 31.78125 27.226562 C 33.59375 27.226562 35.074219 28.710938 35.074219 30.519531 C 35.074219 32.332031 33.59375 33.8125 31.78125 33.8125 Z M 31.78125 27.535156 C 30.136719 27.535156 28.796875 28.875 28.796875 30.519531 C 28.796875 32.167969 30.136719 33.503906 31.78125 33.503906 C 33.429688 33.503906 34.765625 32.167969 34.765625 30.519531 C 34.765625 28.875 33.429688 27.535156 31.78125 27.535156 Z M 31.78125 27.535156 M 27.304688 21.703125 C 27.304688 21.914062 27.265625 22.113281 27.183594 22.304688 C 27.105469 22.5 26.992188 22.667969 26.84375 22.816406 C 26.695312 22.964844 26.527344 23.078125 26.332031 23.160156 C 26.140625 23.238281 25.941406 23.277344 25.730469 23.277344 C 25.523438 23.277344 25.320312 23.238281 25.128906 23.160156 C 24.933594 23.078125 24.765625 22.964844 24.617188 22.816406 C 24.46875 22.667969 24.355469 22.5 24.277344 22.304688 C 24.195312 22.113281 24.15625 21.914062 24.15625 21.703125 C 24.15625 21.496094 24.195312 21.292969 24.277344 21.101562 C 24.355469 20.910156 24.46875 20.738281 24.617188 20.589844 C 24.765625 20.441406 24.933594 20.328125 25.128906 20.25 C 25.320312 20.167969 25.523438 20.128906 25.730469 20.128906 C 25.941406 20.128906 26.140625 20.167969 26.332031 20.25 C 26.527344 20.328125 26.695312 20.441406 26.84375 20.589844 C 26.992188 20.738281 27.105469 20.910156 27.183594 21.101562 C 27.265625 21.292969 27.304688 21.496094 27.304688 21.703125 Z M 27.304688 21.703125 M 25.730469 23.351562 C 24.824219 23.351562 24.085938 22.609375 24.085938 21.703125 C 24.085938 20.796875 24.824219 20.058594 25.730469 20.058594 C 26.636719 20.058594 27.378906 20.796875 27.378906 21.703125 C 27.378906 22.609375 26.636719 23.351562 25.730469 23.351562 Z M 25.730469 20.210938 C 24.90625 20.210938 24.238281 20.878906 24.238281 21.703125 C 24.238281 22.527344 24.90625 23.195312 25.730469 23.195312 C 26.554688 23.195312 27.222656 22.527344 27.222656 21.703125 C 27.222656 20.878906 26.554688 20.210938 25.730469 20.210938 Z M 25.730469 20.210938"/></svg>
