<svg viewBox="0 0 640 220" xmlns="http://www.w3.org/2000/svg" role="img" aria-label="SIAFF — Seniors In Action Film Festival">
  <title>SIAFF — Seniors In Action Film Festival</title>
  <g id="reel">
    <circle cx="100" cy="100" r="90" fill="#FF8906"/>
    <circle cx="100.00" cy="50.00" r="19" fill="#FFFFFF"/>
    <circle cx="147.55" cy="84.55" r="19" fill="#FFFFFF"/>
    <circle cx="129.39" cy="140.45" r="19" fill="#FFFFFF"/>
    <circle cx="70.61" cy="140.45" r="19" fill="#FFFFFF"/>
    <circle cx="52.45" cy="84.55" r="19" fill="#FFFFFF"/>
    <circle cx="100" cy="100" r="9" fill="#FFFFFF"/>
  </g>
  <g id="filmstrip">
    <rect x="150" y="180" width="464" height="16" rx="3" fill="#FF8906"/>
    <rect x="196.0" y="183.5" width="6" height="9" rx="1.5" fill="#FFFFFF"/>
    <rect x="218.0" y="183.5" width="6" height="9" rx="1.5" fill="#FFFFFF"/>
    <rect x="240.0" y="183.5" width="6" height="9" rx="1.5" fill="#FFFFFF"/>
    <rect x="262.0" y="183.5" width="6" height="9" rx="1.5" fill="#FFFFFF"/>
    <rect x="284.0" y="183.5" width="6" height="9" rx="1.5" fill="#FFFFFF"/>
    <rect x="306.0" y="183.5" width="6" height="9" rx="1.5" fill="#FFFFFF"/>
    <rect x="328.0" y="183.5" width="6" height="9" rx="1.5" fill="#FFFFFF"/>
    <rect x="350.0" y="183.5" width="6" height="9" rx="1.5" fill="#FFFFFF"/>
    <rect x="372.0" y="183.5" width="6" height="9" rx="1.5" fill="#FFFFFF"/>
    <rect x="394.0" y="183.5" width="6" height="9" rx="1.5" fill="#FFFFFF"/>
    <rect x="416.0" y="183.5" width="6" height="9" rx="1.5" fill="#FFFFFF"/>
    <rect x="438.0" y="183.5" width="6" height="9" rx="1.5" fill="#FFFFFF"/>
    <rect x="460.0" y="183.5" width="6" height="9" rx="1.5" fill="#FFFFFF"/>
    <rect x="482.0" y="183.5" width="6" height="9" rx="1.5" fill="#FFFFFF"/>
    <rect x="504.0" y="183.5" width="6" height="9" rx="1.5" fill="#FFFFFF"/>
    <rect x="526.0" y="183.5" width="6" height="9" rx="1.5" fill="#FFFFFF"/>
    <rect x="548.0" y="183.5" width="6" height="9" rx="1.5" fill="#FFFFFF"/>
    <rect x="570.0" y="183.5" width="6" height="9" rx="1.5" fill="#FFFFFF"/>
    <rect x="592.0" y="183.5" width="6" height="9" rx="1.5" fill="#FFFFFF"/>
  </g>
  <g transform="translate(228,138) scale(0.118,-0.118)" fill="#FF8906">
    <path d="M42 210H224Q228 171 251.0 150.5Q274 130 311 130Q349 130 371.0 147.5Q393 165 393 196Q393 222 375.5 239.0Q358 256 332.5 267.0Q307 278 260 292Q192 313 149.0 334.0Q106 355 75.0 396.0Q44 437 44 503Q44 601 115.0 656.5Q186 712 300 712Q416 712 487.0 656.5Q558 601 563 502H378Q376 536 353.0 555.5Q330 575 294 575Q263 575 244.0 558.5Q225 542 225 511Q225 477 257.0 458.0Q289 439 357 417Q425 394 467.5 373.0Q510 352 541.0 312.0Q572 272 572 209Q572 149 541.5 100.0Q511 51 453.0 22.0Q395 -7 316 -7Q239 -7 178.0 18.0Q117 43 80.5 92.0Q44 141 42 210Z" transform="translate(0,0)"/>
    <path d="M233 702V0H62V702Z" transform="translate(615,0)"/>
    <path d="M499 124H237L195 0H16L270 702H468L722 0H541ZM455 256 368 513 282 256Z" transform="translate(910,0)"/>
    <path d="M519 702V565H233V417H447V284H233V0H62V702Z" transform="translate(1647,0)"/>
    <path d="M519 702V565H233V417H447V284H233V0H62V702Z" transform="translate(2194,0)"/>
    </g>
  <g transform="translate(230,172) scale(0.026,-0.026)" fill="#FF8906">
    <path d="M58 192H180Q184 147 215.5 118.0Q247 89 304 89Q363 89 396.0 117.5Q429 146 429 191Q429 226 408.5 248.0Q388 270 357.5 282.0Q327 294 273 308Q205 326 162.5 344.5Q120 363 90.0 402.0Q60 441 60 506Q60 566 90.0 611.0Q120 656 174.0 680.0Q228 704 299 704Q400 704 464.5 653.5Q529 603 536 515H410Q407 553 374.0 580.0Q341 607 287 607Q238 607 207.0 582.0Q176 557 176 510Q176 478 195.5 457.5Q215 437 245.0 425.0Q275 413 327 399Q396 380 439.5 361.0Q483 342 513.5 302.5Q544 263 544 197Q544 144 515.5 97.0Q487 50 432.5 21.5Q378 -7 304 -7Q234 -7 178.0 17.5Q122 42 90.0 87.0Q58 132 58 192Z" transform="translate(0,0)"/>
    <path d="M576 233H155Q160 167 204.0 127.0Q248 87 312 87Q404 87 442 164H565Q540 88 474.5 39.5Q409 -9 312 -9Q233 -9 170.5 26.5Q108 62 72.5 126.5Q37 191 37 276Q37 361 71.5 425.5Q106 490 168.5 525.0Q231 560 312 560Q390 560 451.0 526.0Q512 492 546.0 430.5Q580 369 580 289Q580 258 576 233ZM461 325Q460 388 416.0 426.0Q372 464 307 464Q248 464 206.0 426.5Q164 389 156 325Z" transform="translate(604,0)"/>
    <path d="M579 325V0H466V308Q466 382 429.0 421.5Q392 461 328 461Q264 461 226.5 421.5Q189 382 189 308V0H75V551H189V488Q217 522 260.5 541.0Q304 560 353 560Q418 560 469.5 533.0Q521 506 550.0 453.0Q579 400 579 325Z" transform="translate(1221,0)"/>
    <path d="M60 697Q60 728 81.0 749.0Q102 770 133 770Q163 770 184.0 749.0Q205 728 205 697Q205 666 184.0 645.0Q163 624 133 624Q102 624 81.0 645.0Q60 666 60 697ZM189 551V0H75V551Z" transform="translate(1870,0)"/>
    <path d="M38 276Q38 360 75.0 425.0Q112 490 176.0 525.0Q240 560 319 560Q398 560 462.0 525.0Q526 490 563.0 425.0Q600 360 600 276Q600 192 562.0 127.0Q524 62 458.5 26.5Q393 -9 314 -9Q236 -9 173.0 26.5Q110 62 74.0 126.5Q38 191 38 276ZM483 276Q483 336 460.0 377.5Q437 419 399.0 440.0Q361 461 317 461Q273 461 235.5 440.0Q198 419 176.0 377.5Q154 336 154 276Q154 187 199.5 138.5Q245 90 314 90Q358 90 396.5 111.0Q435 132 459.0 174.0Q483 216 483 276Z" transform="translate(2134,0)"/>
    <path d="M354 560V442H325Q258 442 223.5 408.0Q189 374 189 290V0H75V551H189V471Q214 513 255.5 536.5Q297 560 354 560Z" transform="translate(2772,0)"/>
    <path d="M45 169H163Q166 134 196.5 110.5Q227 87 273 87Q321 87 347.5 105.5Q374 124 374 153Q374 184 344.5 199.0Q315 214 251 232Q189 249 150.0 265.0Q111 281 82.5 314.0Q54 347 54 401Q54 445 80.0 481.5Q106 518 154.5 539.0Q203 560 266 560Q360 560 417.5 512.5Q475 465 479 383H365Q362 420 335.0 442.0Q308 464 262 464Q217 464 193.0 447.0Q169 430 169 402Q169 380 185.0 365.0Q201 350 224.0 341.5Q247 333 292 320Q352 304 390.5 287.5Q429 271 457.0 239.0Q485 207 486 154Q486 107 460.0 70.0Q434 33 386.5 12.0Q339 -9 275 -9Q210 -9 158.5 14.5Q107 38 77.0 78.5Q47 119 45 169Z" transform="translate(3156,0)"/>
    <path d="M189 695V0H75V695Z" transform="translate(3950,0)"/>
    <path d="M579 325V0H466V308Q466 382 429.0 421.5Q392 461 328 461Q264 461 226.5 421.5Q189 382 189 308V0H75V551H189V488Q217 522 260.5 541.0Q304 560 353 560Q418 560 469.5 533.0Q521 506 550.0 453.0Q579 400 579 325Z" transform="translate(4214,0)"/>
    <path d="M494 142H203L153 0H34L283 696H415L664 0H544ZM462 235 349 558 235 235Z" transform="translate(5123,0)"/>
    <path d="M307 560Q407 560 472.5 512.5Q538 465 561 377H438Q423 418 390.0 441.0Q357 464 307 464Q237 464 195.5 414.5Q154 365 154 276Q154 187 195.5 137.0Q237 87 307 87Q406 87 438 174H561Q537 90 471.0 40.5Q405 -9 307 -9Q228 -9 167.0 26.5Q106 62 71.5 126.5Q37 191 37 276Q37 361 71.5 425.5Q106 490 167.0 525.0Q228 560 307 560Z" transform="translate(5820,0)"/>
    <path d="M208 458V153Q208 122 222.5 108.5Q237 95 272 95H342V0H252Q175 0 134.0 36.0Q93 72 93 153V458H28V551H93V688H208V551H342V458Z" transform="translate(6420,0)"/>
    <path d="M60 697Q60 728 81.0 749.0Q102 770 133 770Q163 770 184.0 749.0Q205 728 205 697Q205 666 184.0 645.0Q163 624 133 624Q102 624 81.0 645.0Q60 666 60 697ZM189 551V0H75V551Z" transform="translate(6792,0)"/>
    <path d="M38 276Q38 360 75.0 425.0Q112 490 176.0 525.0Q240 560 319 560Q398 560 462.0 525.0Q526 490 563.0 425.0Q600 360 600 276Q600 192 562.0 127.0Q524 62 458.5 26.5Q393 -9 314 -9Q236 -9 173.0 26.5Q110 62 74.0 126.5Q38 191 38 276ZM483 276Q483 336 460.0 377.5Q437 419 399.0 440.0Q361 461 317 461Q273 461 235.5 440.0Q198 419 176.0 377.5Q154 336 154 276Q154 187 199.5 138.5Q245 90 314 90Q358 90 396.5 111.0Q435 132 459.0 174.0Q483 216 483 276Z" transform="translate(7056,0)"/>
    <path d="M579 325V0H466V308Q466 382 429.0 421.5Q392 461 328 461Q264 461 226.5 421.5Q189 382 189 308V0H75V551H189V488Q217 522 260.5 541.0Q304 560 353 560Q418 560 469.5 533.0Q521 506 550.0 453.0Q579 400 579 325Z" transform="translate(7694,0)"/>
    <path d="M484 695V602H189V397H419V304H189V0H75V695Z" transform="translate(8603,0)"/>
    <path d="M60 697Q60 728 81.0 749.0Q102 770 133 770Q163 770 184.0 749.0Q205 728 205 697Q205 666 184.0 645.0Q163 624 133 624Q102 624 81.0 645.0Q60 666 60 697ZM189 551V0H75V551Z" transform="translate(9118,0)"/>
    <path d="M189 740V0H75V740Z" transform="translate(9382,0)"/>
    <path d="M969 325V0H856V308Q856 382 819.0 421.5Q782 461 718 461Q654 461 616.5 421.5Q579 382 579 308V0H466V308Q466 382 429.0 421.5Q392 461 328 461Q264 461 226.5 421.5Q189 382 189 308V0H75V551H189V488Q217 522 260.0 541.0Q303 560 352 560Q418 560 470.0 532.0Q522 504 550 451Q575 501 628.0 530.5Q681 560 742 560Q807 560 858.5 533.0Q910 506 939.5 453.0Q969 400 969 325Z" transform="translate(9646,0)"/>
    <path d="M484 695V602H189V397H419V304H189V0H75V695Z" transform="translate(10945,0)"/>
    <path d="M576 233H155Q160 167 204.0 127.0Q248 87 312 87Q404 87 442 164H565Q540 88 474.5 39.5Q409 -9 312 -9Q233 -9 170.5 26.5Q108 62 72.5 126.5Q37 191 37 276Q37 361 71.5 425.5Q106 490 168.5 525.0Q231 560 312 560Q390 560 451.0 526.0Q512 492 546.0 430.5Q580 369 580 289Q580 258 576 233ZM461 325Q460 388 416.0 426.0Q372 464 307 464Q248 464 206.0 426.5Q164 389 156 325Z" transform="translate(11460,0)"/>
    <path d="M45 169H163Q166 134 196.5 110.5Q227 87 273 87Q321 87 347.5 105.5Q374 124 374 153Q374 184 344.5 199.0Q315 214 251 232Q189 249 150.0 265.0Q111 281 82.5 314.0Q54 347 54 401Q54 445 80.0 481.5Q106 518 154.5 539.0Q203 560 266 560Q360 560 417.5 512.5Q475 465 479 383H365Q362 420 335.0 442.0Q308 464 262 464Q217 464 193.0 447.0Q169 430 169 402Q169 380 185.0 365.0Q201 350 224.0 341.5Q247 333 292 320Q352 304 390.5 287.5Q429 271 457.0 239.0Q485 207 486 154Q486 107 460.0 70.0Q434 33 386.5 12.0Q339 -9 275 -9Q210 -9 158.5 14.5Q107 38 77.0 78.5Q47 119 45 169Z" transform="translate(12077,0)"/>
    <path d="M208 458V153Q208 122 222.5 108.5Q237 95 272 95H342V0H252Q175 0 134.0 36.0Q93 72 93 153V458H28V551H93V688H208V551H342V458Z" transform="translate(12611,0)"/>
    <path d="M60 697Q60 728 81.0 749.0Q102 770 133 770Q163 770 184.0 749.0Q205 728 205 697Q205 666 184.0 645.0Q163 624 133 624Q102 624 81.0 645.0Q60 666 60 697ZM189 551V0H75V551Z" transform="translate(12983,0)"/>
    <path d="M288 102 444 551H565L355 0H219L10 551H132Z" transform="translate(13247,0)"/>
    <path d="M297 560Q362 560 410.5 534.5Q459 509 488 471V551H603V0H488V82Q459 43 409.0 17.0Q359 -9 295 -9Q224 -9 165.0 27.5Q106 64 71.5 129.5Q37 195 37 278Q37 361 71.5 425.0Q106 489 165.5 524.5Q225 560 297 560ZM321 461Q277 461 239.0 439.5Q201 418 177.5 376.5Q154 335 154 278Q154 221 177.5 178.0Q201 135 239.5 112.5Q278 90 321 90Q365 90 403.0 112.0Q441 134 464.5 176.5Q488 219 488 276Q488 333 464.5 375.0Q441 417 403.0 439.0Q365 461 321 461Z" transform="translate(13823,0)"/>
    <path d="M189 740V0H75V740Z" transform="translate(14501,0)"/>
    </g>
</svg>
